<mxfile host="app.diagrams.net" modified="2024-05-29T23:49:21.652Z" agent="Mozilla/5.0 (Windows NT 10.0; Win64; x64) AppleWebKit/537.36 (KHTML, like Gecko) Chrome/125.0.0.0 Safari/537.36 Edg/125.0.0.0" version="24.4.10" etag="HBEFt8J_BuzXeSOkFEs8" type="github">
  <diagram name="Page-1" id="jqWu_Cqk18yRXejkZEES">
    <mxGraphModel>
      <root>
        <mxCell id="0" />
        <mxCell id="1" parent="0" />
      </root>
    </mxGraphModel>
  </diagram>
</mxfile>
